<svg id="Group_731" data-name="Group 731" xmlns="http://www.w3.org/2000/svg" xmlns:xlink="http://www.w3.org/1999/xlink" width="20.711" height="20.221" viewBox="0 0 20.711 20.221">
    <defs>
        <clipPath id="clip-path">
            <rect id="Rectangle_279" data-name="Rectangle 279" width="20.711" height="20.221" fill="#7a7a7a"/>
        </clipPath>
    </defs>
    <g id="Group_730" data-name="Group 730" clip-path="url(#clip-path)">
        <path id="Path_21983" data-name="Path 21983" d="M20.711,4.128c-.028.058-.058.116-.085.175a.949.949,0,0,1-1.011.543.917.917,0,0,1-.769-.822c-.02-.244,0-.491,0-.75L17.451,4.667c.176.3.39.625.555.969a6.341,6.341,0,0,1-.093,5.98,6.309,6.309,0,0,1-4.168,3.262,6.281,6.281,0,0,1-4.168-.334.563.563,0,0,0-.455,0c-.53.188-1.07.349-1.625.527v1.167c.284,0,.558,0,.832,0,.135,0,.27,0,.4.014a.934.934,0,0,1-.049,1.865c-.389.015-.78,0-1.2,0,0,.4.007.792,0,1.18a.932.932,0,0,1-1.859.084c-.025-.409,0-.82,0-1.261-.352,0-.679,0-1.006,0a1.826,1.826,0,0,1-.44-.046.916.916,0,0,1-.657-.99.9.9,0,0,1,.805-.826c.274-.026.552-.017.828-.021.141,0,.282,0,.44,0V15.029c-.283-.069-.58-.123-.865-.215A6.379,6.379,0,0,1,.113,9.666a6.471,6.471,0,0,1,3.575-7A6.36,6.36,0,0,1,9.1,2.526a.588.588,0,0,0,.493,0,6.425,6.425,0,0,1,6.32.665c.05.033.1.065.134.086L17.435,1.89h-.549A.962.962,0,0,1,16,1.433.937.937,0,0,1,16.812.007c.687-.013,1.375,0,2.062,0h.667a1.012,1.012,0,0,1,1.17.767ZM11.257,13.1a4.651,4.651,0,0,0,4.455-7.565A4.538,4.538,0,0,0,11.268,4a6.593,6.593,0,0,1-.011,9.1m-3.8-9.118a4.649,4.649,0,0,0-4.532,7.484,4.561,4.561,0,0,0,4.522,1.621,6.555,6.555,0,0,1,.009-9.105m1.886,8.27a4.63,4.63,0,0,0,0-7.416,4.643,4.643,0,0,0,0,7.416" transform="translate(0 -0.001)" fill="#7a7a7a"/>
    </g>
</svg>
