<svg xmlns="http://www.w3.org/2000/svg" width="17.402" height="22.509" viewBox="0 0 17.402 22.509">
    <g id="office-chair-svgrepo-com" transform="translate(-5.331)">
        <g id="Layer_1_123_" transform="translate(5.331)">
            <path id="Path_21982" data-name="Path 21982" d="M22.225,20.57v-.486a.536.536,0,0,0-.305-.484,19.336,19.336,0,0,0-7.352-1.436v-1.83a1.066,1.066,0,0,0,.536-.923V14.82h3.811a1.068,1.068,0,0,0,1.039-1.33,8.221,8.221,0,0,0,1.47-.615.535.535,0,0,0,.265-.463V9.481H22.2a.536.536,0,1,0,0-1.072H20.109a.536.536,0,0,0,0,1.072h.509v2.6a10.3,10.3,0,0,1-1.364.5l-.363-.363a1.073,1.073,0,0,0-.937-.3,23.911,23.911,0,0,1-2.85.233v-.936a9.318,9.318,0,0,0,3.066-.6,1.072,1.072,0,0,0,.624-1.084l-.821-8.158a1.073,1.073,0,0,0-.65-.881A9,9,0,0,0,14.032,0a8.987,8.987,0,0,0-3.29.495,1.071,1.071,0,0,0-.65.881l-.821,8.16a1.071,1.071,0,0,0,.624,1.084,9.323,9.323,0,0,0,3.065.6v.936a23.614,23.614,0,0,1-2.849-.233,1.068,1.068,0,0,0-.938.3l-.362.363a10.2,10.2,0,0,1-1.364-.5v-2.6h.508a.536.536,0,0,0,0-1.072H5.867a.536.536,0,1,0,0,1.072h.508v2.931a.538.538,0,0,0,.265.463,8.243,8.243,0,0,0,1.485.619A1.062,1.062,0,0,0,9.16,14.822h3.8v.592a1.067,1.067,0,0,0,.536.923v1.83A19.326,19.326,0,0,0,6.144,19.6a.538.538,0,0,0-.3.484v.487a1.044,1.044,0,1,0,1.072,0v-.131a19.553,19.553,0,0,1,6.585-1.2v1.335a1.044,1.044,0,1,0,1.072,0V19.238a19.708,19.708,0,0,1,6.585,1.2v.131a1.042,1.042,0,1,0,1.072,0ZM12.32,3.1a4.746,4.746,0,0,1,1.711-.251,4.749,4.749,0,0,1,1.711.251.268.268,0,0,1-.1.515.283.283,0,0,1-.1-.021,4.354,4.354,0,0,0-1.5-.209,4.355,4.355,0,0,0-1.5.21A.268.268,0,0,1,12.32,3.1Zm-.268,1.627a5.5,5.5,0,0,1,1.98-.289,5.5,5.5,0,0,1,1.98.289.268.268,0,0,1-.208.494,5.133,5.133,0,0,0-1.771-.248,5.108,5.108,0,0,0-1.772.248.268.268,0,0,1-.207-.494Zm1.979,1.834a5.882,5.882,0,0,0-2.04.286.268.268,0,0,1-.207-.494,6.22,6.22,0,0,1,2.247-.328,6.22,6.22,0,0,1,2.247.328.268.268,0,0,1-.1.514.273.273,0,0,1-.1-.021A5.874,5.874,0,0,0,14.032,6.556Z" transform="translate(-5.331)" fill="#7a7a7a"/>
        </g>
    </g>
</svg>
