<svg xmlns="http://www.w3.org/2000/svg" width="152.895" height="116.5" viewBox="0 0 152.895 116.5">
    <path id="Path_316" data-name="Path 316" d="M756.8,57.763a9.6,9.6,0,0,1,5.5-5.729c20.5-9.773,40.967-19.627,61.508-29.322a23.049,23.049,0,0,1,20.628.144q29.86,14.457,59.619,29.121a13.956,13.956,0,0,1,3.459,2.29,6.126,6.126,0,0,1-.46,9.723,19.736,19.736,0,0,1-3.442,2.065c-6.053,3.008-12.109,6.012-18.212,8.917a2.2,2.2,0,0,0-1.429,2.376c.042,11.051,0,22.1.056,33.152a6.279,6.279,0,0,1-1.688,4.444,61.345,61.345,0,0,1-34.78,20.335c-19.581,3.924-37.818.613-54.029-11.43-3.681-2.735-6.833-6.21-10.064-9.5a5.229,5.229,0,0,1-1.221-3.34c-.09-10.6-.176-21.207.027-31.805.055-2.857-.686-4.445-3.416-5.356a51.749,51.749,0,0,1-5.932-2.834v3.963c0,6.621.008,13.241-.011,19.861a1.551,1.551,0,0,0,.885,1.653A7.956,7.956,0,0,1,778.3,104a8.164,8.164,0,0,1-4.564,7.5c-.169.092-.326.206-.611.387l7.828,24.932H758.987c.141-.527.248-.992.39-1.445,2.323-7.395,4.636-14.792,6.991-22.177.29-.911.312-1.407-.669-2.008a8.385,8.385,0,0,1,.257-14.617,1.706,1.706,0,0,0,1.021-1.729q-.043-12.842,0-25.685a1.509,1.509,0,0,0-1.074-1.669c-.787-.3-1.52-.737-2.292-1.081-2.971-1.324-5.613-3-6.815-6.252Zm5.181,1.261a28.932,28.932,0,0,0,2.555,1.7c1.682.857,3.39,1.67,5.126,2.408a4.139,4.139,0,0,0,1.987.328c6.969-.775,13.932-1.6,20.9-2.417q14.595-1.718,29.187-3.452,5.407-.64,10.815-1.287c1.234-.148,2.984,1.25,2.984,1.25s.086,3.814-2.2,4.124c-4.287.579-8.59,1.033-12.888,1.538q-16.373,1.923-32.745,3.847c-2.462.29-4.92.609-7.381.915a3.815,3.815,0,0,0,1.324.927q21.975,10.544,43.958,21.072a18.507,18.507,0,0,0,16.687-.046q6.518-3.13,13.013-6.3,13.636-6.651,27.263-13.319c6.516-3.191,13.032-6.383,19.517-9.634a10.191,10.191,0,0,0,1.954-1.715c-.651-.565-1.286-1.151-1.961-1.686a4.969,4.969,0,0,0-.934-.46q-29.2-14.271-58.393-28.55a19.039,19.039,0,0,0-17.507-.028q-4.968,2.4-9.944,4.776-25.128,12.073-50.249,24.158c-.945.456-1.805,1.088-3.061,1.855m116.387,19.16c-.837.406-1.409.679-1.977.958q-15.931,7.8-31.863,15.6a23.551,23.551,0,0,1-21.285.081c-11.193-5.269-22.331-10.656-33.495-15.989-.517-.247-1.05-.461-1.687-.74-.043.4-.09.638-.09.873,0,10.4-.015,20.8.026,31.2a2.591,2.591,0,0,0,.7,1.693,88.567,88.567,0,0,0,8.454,7.743c15.594,11.395,32.939,14.294,51.543,9.806A55.568,55.568,0,0,0,877.5,112.052a3.674,3.674,0,0,0,.835-2.229c.068-5.672.037-11.345.037-17.019Z" transform="translate(-756.801 -20.347)" fill="#858585"/>
</svg>
