<svg id="Group_2" data-name="Group 2" xmlns="http://www.w3.org/2000/svg" xmlns:xlink="http://www.w3.org/1999/xlink" width="232.773" height="277.8" viewBox="0 0 232.773 277.8">
<defs>
<clipPath id="clip-path">
<rect id="Rectangle_30" data-name="Rectangle 30" width="232.773" height="277.8" fill="#fff"/>
</clipPath>
</defs>
<g id="Group_1" data-name="Group 1" clip-path="url(#clip-path)">
<path id="Path_3" data-name="Path 3" d="M130.063,225.723V247.08l-19.344,33.5a10.056,10.056,0,0,0,3.681,13.737l.743.43a10.057,10.057,0,0,0,13.737-3.681l20.658-35.782a18.876,18.876,0,0,0,1.5-6.552V236.36Z" transform="translate(-38.169 -78.776)" fill="#fff"/>
<path id="Path_4" data-name="Path 4" d="M216.429,164.587h0a9.341,9.341,0,0,1-11.714,6.1l-21.392-6.735-.084-19.611,27.086,8.527a9.341,9.341,0,0,1,6.1,11.714" transform="translate(-63.949 -50.376)" fill="#fff"/>
<path id="Path_5" data-name="Path 5" d="M158.988,204.3,143.65,173.959a13.23,13.23,0,0,0-3.042-4.375,21.818,21.818,0,0,0-4.219-2.551L112.31,154.859V91.587a10.056,10.056,0,0,0-10.056-10.056H89.7a10,10,0,0,0-5.233,1.481,10.219,10.219,0,0,0-1.037.589L55.181,102.16a10.041,10.041,0,0,0-4.529,8.475c0,.05-.008.1-.008.15v33.85a8.535,8.535,0,0,0-7.166,4.14L41.4,152.238l-13.381-7.584a6.657,6.657,0,0,0-9.074,2.509L.866,179.059a6.657,6.657,0,0,0,2.509,9.074l50.206,28.456a6.657,6.657,0,0,0,9.074-2.509l18.078-31.9a6.656,6.656,0,0,0-2.509-9.073l-12.9-7.311,1.724-2.872a8.546,8.546,0,0,0,0-8.8,10.034,10.034,0,0,0,3.7-7.794V115.992l8.893-5.841v45.407a10.034,10.034,0,0,0,4.212,8.173,10.046,10.046,0,0,0,2.484,1.774l39.3,19.87,14.406,28.5a10.056,10.056,0,0,0,13.511,4.438l.984-.5a10.056,10.056,0,0,0,4.438-13.511M61.036,159.232l-1.852,3.085L46.432,155.09l2.041-3.4a2.524,2.524,0,0,1,3.169-1.01,10.047,10.047,0,0,0,9.057,5.709c.055,0,.107-.007.162-.008a2.526,2.526,0,0,1,.174,2.851" transform="translate(0 -28.454)" fill="#fff"/>
<path id="Path_6" data-name="Path 6" d="M157.578,22.923A22.924,22.924,0,1,1,134.654,0a22.924,22.924,0,0,1,22.924,22.924" transform="translate(-38.993 0)" fill="#fff"/>
<path id="Path_7" data-name="Path 7" d="M237.513,262.339h-46.72v30.237H135.36v29.586H80.01V352.4H50.091v16.954H96.964V339.116h38.4v.07h16.954V309.53h55.433V279.293h29.766Z" transform="translate(-17.482 -91.554)" fill="#fff"/>
<path id="Path_8" data-name="Path 8" d="M267.545,164.222h7.787V175.9c0,6.289-3.894,10.182-8.386,10.182a9.635,9.635,0,0,1-5.99-1.8l2.1-6.289a4.139,4.139,0,0,0,2.1.6,2.45,2.45,0,0,0,2.4-2.7Z" transform="translate(-91.072 -57.312)" fill="#fff"/>
<path id="Path_9" data-name="Path 9" d="M299.316,185.395c-6.888,0-11.68-4.791-11.68-10.931s4.792-10.932,11.68-10.932S311,168.324,311,174.464s-4.792,10.931-11.68,10.931m0-14.525a3.608,3.608,0,1,0,3.295,3.594,3.4,3.4,0,0,0-3.295-3.594" transform="translate(-100.383 -57.071)" fill="#fff"/>
<path id="Path_10" data-name="Path 10" d="M342.491,174.1s4.792.749,4.792,5.241c0,3.294-2.7,5.99-10.184,5.99-4.791,0-8.984-.3-8.984-.3V164.062s4.193-.3,8.835-.3c6.738,0,9.434,2.7,9.434,5.84,0,3.594-3.892,4.343-3.892,4.343Zm-6.59-2.246h1.048c1.049,0,1.647-.6,1.647-1.348s-.6-1.348-1.647-1.348H335.9Zm3,6.589c0-.9-.6-1.5-1.8-1.5h-1.2v2.995h1.2c1.2,0,1.8-.6,1.8-1.5" transform="translate(-114.51 -57.152)" fill="#fff"/>
<path id="Path_11" data-name="Path 11" d="M284.036,230.587l-3.594-11.68v11.68h-7.786V209.622h11.081L287.181,221l3.444-11.38h11.082v20.964h-7.787v-11.68l-3.594,11.68Z" transform="translate(-95.155 -73.157)" fill="#fff"/>
<path id="Path_12" data-name="Path 12" d="M330.581,224.6h8.985v5.99H322.795V209.622h16.173v5.99h-8.386v1.5h7.787v5.99h-7.787Z" transform="translate(-112.653 -73.157)" fill="#fff"/>
</g>
</svg>
