<svg xmlns="http://www.w3.org/2000/svg" xmlns:xlink="http://www.w3.org/1999/xlink" width="20" height="20" viewBox="0 0 20 20">
    <defs>
        <clipPath id="clip-path">
            <rect id="Rectangle_247" data-name="Rectangle 247" width="20" height="20" transform="translate(0.197 0.197)" fill="none"/>
        </clipPath>
    </defs>
    <g id="Group_640" data-name="Group 640" transform="translate(-0.197 -0.197)" clip-path="url(#clip-path)">
        <path id="Path_305" data-name="Path 305" d="M12.842,0a.907.907,0,0,1,.582.506.8.8,0,0,1-.667,1.088,2.567,2.567,0,0,1-.26.006H3.317a1.569,1.569,0,0,0-1.541.906,1.8,1.8,0,0,0-.168.75q-.015,7-.006,14a1.539,1.539,0,0,0,.976,1.478A7.04,7.04,0,0,1,4.146,14.9,7.673,7.673,0,0,1,7.5,12.433,4.149,4.149,0,0,1,6.207,8.5,3.929,3.929,0,0,1,7.718,6.058a4.159,4.159,0,0,1,5.315,6.393,7.736,7.736,0,0,1,3.323,2.477,7.018,7.018,0,0,1,1.546,3.8,1.528,1.528,0,0,0,.973-1.325c.007-.1.007-.2.007-.3q0-4.581,0-9.161a1.257,1.257,0,0,1,.059-.431.754.754,0,0,1,.7-.509.787.787,0,0,1,.759.455c.028.059.053.12.08.181v10a.428.428,0,0,0-.036.089,3.108,3.108,0,0,1-1.808,2.436,7.14,7.14,0,0,1-1,.315H2.84a.425.425,0,0,0-.089-.036A3.108,3.108,0,0,1,.315,18.639a7.141,7.141,0,0,1-.315-1V2.84a.425.425,0,0,0,.036-.089A3.108,3.108,0,0,1,1.844.315,7.134,7.134,0,0,1,2.84,0ZM10.23,18.883h5.538c.428,0,.573-.192.47-.61a5.994,5.994,0,0,0-1.979-3.232A5.835,5.835,0,0,0,9.2,13.631,6.044,6.044,0,0,0,4.247,18.27c-.117.424.038.613.485.613h5.5m.048-7A2.56,2.56,0,1,0,7.721,9.328a2.565,2.565,0,0,0,2.557,2.555" transform="translate(-0.143 -0.143)"/>
        <path id="Path_306" data-name="Path 306" d="M329.634,3.961a.9.9,0,0,1-1,.645c-.658-.02-1.318,0-2,0v.226c0,.633,0,1.267,0,1.9a.8.8,0,1,1-1.6,0c0-.7,0-1.4,0-2.124h-.224c-.633,0-1.267,0-1.9,0a.8.8,0,1,1,0-1.6c.7,0,1.4,0,2.125,0V2.778c0-.593.015-1.187,0-1.78a.9.9,0,0,1,.645-1h.32a.9.9,0,0,1,.645,1c-.02.592,0,1.186,0,1.779V3c.685,0,1.344.015,2,0a.9.9,0,0,1,1,.645Z" transform="translate(-309.294 -0.143)"/>
    </g>
</svg>
