<svg id="Group_643" data-name="Group 643" xmlns="http://www.w3.org/2000/svg" xmlns:xlink="http://www.w3.org/1999/xlink" width="16.906" height="21.073" viewBox="0 0 16.906 21.073">
    <defs>
        <clipPath id="clip-path">
            <rect id="Rectangle_248" data-name="Rectangle 248" width="16.906" height="21.073" fill="none" stroke="#707070" stroke-width="0.5"/>
        </clipPath>
    </defs>
    <g id="Group_642" data-name="Group 642" clip-path="url(#clip-path)">
        <path id="Path_307" data-name="Path 307" d="M0,10.521q0-4.2,0-8.4a1.981,1.981,0,0,1,1.346-2A2.455,2.455,0,0,1,2.1.007C5,0,7.906,0,10.81,0a.739.739,0,0,1,.56.232q2.646,2.655,5.3,5.3a.742.742,0,0,1,.235.56q0,6.451,0,12.9a1.993,1.993,0,0,1-2.093,2.076q-6.349,0-12.7,0A2,2,0,0,1,0,18.965Q0,14.743,0,10.521M10.435,1H2.179A1.027,1.027,0,0,0,1.006,2.172q0,8.363,0,16.726a1.028,1.028,0,0,0,1.169,1.176h12.56A1.029,1.029,0,0,0,15.9,18.9q0-6.067,0-12.134V6.478H12.347a1.766,1.766,0,0,1-1.912-1.9q0-1.655,0-3.309Zm.994.778v.2q0,1.306,0,2.611a.778.778,0,0,0,.882.885q1.305,0,2.611,0c.071,0,.143-.007.2-.01l-3.69-3.689" transform="translate(0 0)" stroke="#707070" stroke-width="0.5"/>
        <path id="Path_308" data-name="Path 308" d="M46.43,253.634H41.9c-.083,0-.166,0-.248,0a.5.5,0,0,1-.462-.493.506.506,0,0,1,.439-.494,1.338,1.338,0,0,1,.18-.005h9.231a1.344,1.344,0,0,1,.2.007.5.5,0,0,1,.427.5.494.494,0,0,1-.448.481,2.423,2.423,0,0,1-.247.006H46.43" transform="translate(-38.449 -235.795)" stroke="#707070" stroke-width="0.5"/>
        <path id="Path_309" data-name="Path 309" d="M52.037,121.416a3.059,3.059,0,0,1,0,.359.49.49,0,0,1-.972.022c-.024-.162-.015-.329-.023-.494a1.829,1.829,0,0,0-1.767-1.734q-.652-.017-1.3,0a1.828,1.828,0,0,0-1.76,1.717c-.008.15,0,.3-.014.45a.5.5,0,0,1-.5.479.509.509,0,0,1-.491-.491,2.867,2.867,0,0,1,2.829-3.154,10.058,10.058,0,0,1,1.617.04,2.793,2.793,0,0,1,2.391,2.805" transform="translate(-42.174 -110.655)" stroke="#707070" stroke-width="0.5"/>
        <path id="Path_310" data-name="Path 310" d="M70.52,56.753a2.016,2.016,0,1,1-2.01-2.022,2.02,2.02,0,0,1,2.01,2.022m-1,.011A1.018,1.018,0,1,0,68.5,57.776a1.024,1.024,0,0,0,1.018-1.012" transform="translate(-62.056 -51.082)" stroke="#707070" stroke-width="0.5"/>
        <path id="Path_311" data-name="Path 311" d="M44.751,214.273c-.983,0-1.965,0-2.948,0-.414,0-.664-.3-.556-.647a.475.475,0,0,1,.493-.347c.4-.005.81,0,1.215,0q2.34,0,4.68,0a1.1,1.1,0,0,1,.311.03.493.493,0,0,1,.325.511.5.5,0,0,1-.461.448c-.149.014-.3.006-.45.006h-2.61" transform="translate(-38.474 -199.057)" stroke="#707070" stroke-width="0.5"/>
    </g>
</svg>
