<svg id="Group_3" data-name="Group 3" xmlns="http://www.w3.org/2000/svg" xmlns:xlink="http://www.w3.org/1999/xlink" width="240.267" height="286.744" viewBox="0 0 240.267 286.744">
    <defs>
        <clipPath id="clip-path">
            <rect id="Rectangle_30" data-name="Rectangle 30" width="240.267" height="286.744" fill="none"/>
        </clipPath>
    </defs>
    <g id="Group_1" data-name="Group 1" clip-path="url(#clip-path)">
        <path id="Path_3" data-name="Path 3" d="M130.729,225.723v22.045l-19.967,34.583a10.38,10.38,0,0,0,3.8,14.179l.767.443a10.38,10.38,0,0,0,14.179-3.8l21.324-36.934a19.485,19.485,0,0,0,1.544-6.763V236.7Z" transform="translate(-35.877 -74.045)" fill="#2a8ddf"/>
        <path id="Path_4" data-name="Path 4" d="M217.5,165.239h0a9.641,9.641,0,0,1-12.091,6.3l-22.081-6.952-.087-20.242,27.958,8.8a9.642,9.642,0,0,1,6.3,12.091" transform="translate(-60.109 -47.35)" fill="#2a8ddf"/>
        <path id="Path_5" data-name="Path 5" d="M164.107,208.253l-15.832-31.318a13.656,13.656,0,0,0-3.14-4.516,22.52,22.52,0,0,0-4.355-2.633L115.926,157.22V91.911a10.38,10.38,0,0,0-10.38-10.38H92.592a10.32,10.32,0,0,0-5.4,1.529,10.546,10.546,0,0,0-1.07.608L56.957,102.824a10.364,10.364,0,0,0-4.675,8.748c0,.052-.008.1-.008.155v34.94a8.81,8.81,0,0,0-7.4,4.273l-2.145,3.574-13.812-7.828a6.871,6.871,0,0,0-9.366,2.59L.894,182.2a6.871,6.871,0,0,0,2.59,9.366l51.823,29.372a6.872,6.872,0,0,0,9.366-2.59l18.66-32.924a6.87,6.87,0,0,0-2.59-9.365L67.43,168.512l1.779-2.965a8.821,8.821,0,0,0,0-9.082,10.357,10.357,0,0,0,3.824-8.045V117.1l9.179-6.029v46.869a10.357,10.357,0,0,0,4.348,8.436,10.369,10.369,0,0,0,2.564,1.831l40.57,20.51,14.869,29.414a10.38,10.38,0,0,0,13.946,4.581l1.016-.514a10.379,10.379,0,0,0,4.581-13.946M63,161.734l-1.912,3.184-13.162-7.46,2.107-3.509a2.605,2.605,0,0,1,3.271-1.043,10.37,10.37,0,0,0,9.349,5.893c.056,0,.111-.007.167-.008a2.607,2.607,0,0,1,.18,2.943" transform="translate(0 -26.745)" fill="#2a8ddf"/>
        <path id="Path_6" data-name="Path 6" d="M159.054,23.661A23.662,23.662,0,1,1,135.392,0a23.662,23.662,0,0,1,23.662,23.662" transform="translate(-36.651 0)" fill="#2a8ddf"/>
        <path id="Path_7" data-name="Path 7" d="M243.547,262.339H195.322V293.55H138.1v30.539H80.974V355.3H50.091v17.5H98.473V341.588H138.1v.072h17.5V311.049h57.217v-31.21h30.724Z" transform="translate(-16.432 -86.056)" fill="#2a8ddf"/>
        <path id="Path_8" data-name="Path 8" d="M267.757,164.222h8.037v12.056c0,6.492-4.019,10.51-8.656,10.51a9.945,9.945,0,0,1-6.183-1.855l2.164-6.491a4.272,4.272,0,0,0,2.163.618,2.529,2.529,0,0,0,2.474-2.783Z" transform="translate(-85.602 -53.87)" fill="#ffaf0f"/>
        <path id="Path_9" data-name="Path 9" d="M299.692,186.1c-7.11,0-12.056-4.946-12.056-11.283s4.946-11.284,12.056-11.284,12.056,4.946,12.056,11.284S306.8,186.1,299.692,186.1m0-14.993a3.724,3.724,0,1,0,3.4,3.71,3.508,3.508,0,0,0-3.4-3.71" transform="translate(-94.354 -53.644)" fill="#ffaf0f"/>
        <path id="Path_10" data-name="Path 10" d="M342.954,174.428s4.946.773,4.946,5.41c0,3.4-2.783,6.183-10.512,6.183-4.945,0-9.273-.309-9.273-.309v-21.64s4.328-.308,9.119-.308c6.955,0,9.737,2.782,9.737,6.028,0,3.71-4.018,4.483-4.018,4.483Zm-6.8-2.318h1.082c1.083,0,1.7-.619,1.7-1.391s-.618-1.392-1.7-1.392h-1.082Zm3.092,6.8c0-.927-.618-1.546-1.856-1.546h-1.236v3.091h1.236c1.238,0,1.856-.618,1.856-1.546" transform="translate(-107.633 -53.72)" fill="#ffaf0f"/>
        <path id="Path_11" data-name="Path 11" d="M284.4,231.262l-3.71-12.056v12.056h-8.037V209.622h11.438l3.555,11.747,3.555-11.747h11.439v21.639H294.6V219.206l-3.71,12.056Z" transform="translate(-89.44 -68.763)" fill="#ffaf0f"/>
        <path id="Path_12" data-name="Path 12" d="M330.832,225.079h9.274v6.183H322.795V209.622h16.694V215.8h-8.656v1.546h8.037v6.183h-8.037Z" transform="translate(-105.887 -68.763)" fill="#ffaf0f"/>
    </g>
</svg>
